<svg width="24" height="24" viewBox="0 0 24 24" fill="none" xmlns="http://www.w3.org/2000/svg">
<path d="M20 14C20 9.58172 16.4183 6 12 6C7.58172 6 4 9.58172 4 14C4 18.4183 7.58172 22 12 22V24C6.47715 24 2 19.5228 2 14C2 8.47715 6.47715 4 12 4C17.5228 4 22 8.47715 22 14C22 19.5228 17.5228 24 12 24V22C16.4183 22 20 18.4183 20 14Z" fill="black"/>
<path d="M17 0C17.5523 0 18 0.447715 18 1C18 1.55228 17.5523 2 17 2H7C6.44772 2 6 1.55228 6 1C6 0.447715 6.44772 0 7 0H17Z" fill="black"/>
<path d="M19.4144 4.29288C19.8049 3.90236 20.4381 3.90236 20.8286 4.29288C21.2191 4.6834 21.2191 5.31657 20.8286 5.70709L18.7073 7.82841C18.3167 8.21894 17.6836 8.21894 17.293 7.82841C16.9025 7.43789 16.9025 6.80472 17.293 6.4142L19.4144 4.29288Z" fill="black"/>
<path d="M16 13C16.5523 13 17 13.4477 17 14C17 14.5523 16.5523 15 16 15H12C11.4477 15 11 14.5523 11 14C11 13.4477 11.4477 13 12 13H16Z" fill="black"/>
<path d="M13 14C13 14.5523 12.5523 15 12 15C11.4477 15 11 14.5523 11 14V10C11 9.44772 11.4477 9 12 9C12.5523 9 13 9.44772 13 10V14Z" fill="black"/>
</svg>
