<svg width="32" height="32" viewBox="0 0 32 32" fill="none" xmlns="http://www.w3.org/2000/svg">
<path d="M18.6667 8L28 17.3333L22.6667 22.6667" stroke="black" stroke-width="2" stroke-linecap="round" stroke-linejoin="round"/>
<path d="M7.77067 24.2293C8.12082 24.5796 8.53655 24.8574 8.9941 25.047C9.45165 25.2366 9.94207 25.3341 10.4373 25.3341C10.9326 25.3341 11.423 25.2366 11.8806 25.047C12.3381 24.8574 12.7538 24.5796 13.104 24.2293L27.2187 10.1147C27.4664 9.86704 27.6629 9.57302 27.797 9.24941C27.9311 8.92581 28.0001 8.57896 28.0001 8.22867C28.0001 7.87839 27.9311 7.53154 27.797 7.20793C27.6629 6.88433 27.4664 6.59031 27.2187 6.34267L25.6573 4.78134C25.4097 4.5336 25.1157 4.33708 24.7921 4.203C24.4685 4.06892 24.1216 3.99991 23.7713 3.99991C23.4211 3.99991 23.0742 4.06892 22.7506 4.203C22.427 4.33708 22.133 4.5336 21.8853 4.78134L7.77067 18.896C7.42041 19.2462 7.14256 19.6619 6.953 20.1194C6.76343 20.577 6.66586 21.0674 6.66586 21.5627C6.66586 22.0579 6.76343 22.5484 6.953 23.0059C7.14256 23.4635 7.42041 23.8792 7.77067 24.2293Z" stroke="black" stroke-width="2" stroke-linecap="round" stroke-linejoin="round"/>
<path d="M5.33333 26.6667L7.69066 24.3093" stroke="black" stroke-width="2" stroke-linecap="round" stroke-linejoin="round"/>
</svg>
