<svg width="32" height="32" viewBox="0 0 32 32" fill="none" xmlns="http://www.w3.org/2000/svg">
<path d="M18.6667 8L28 17.3333L22.6667 22.6667" stroke="black" stroke-width="2" stroke-linecap="round" stroke-linejoin="round"/>
<path d="M7.77064 24.2293C8.12079 24.5796 8.53652 24.8574 8.99407 25.047C9.45162 25.2365 9.94204 25.3341 10.4373 25.3341C10.9326 25.3341 11.423 25.2365 11.8805 25.047C12.3381 24.8574 12.7538 24.5796 13.104 24.2293L27.2186 10.1146C27.4664 9.86701 27.6629 9.57299 27.797 9.24938C27.9311 8.92578 28.0001 8.57892 28.0001 8.22864C28.0001 7.87836 27.9311 7.53151 27.797 7.2079C27.6629 6.8843 27.4664 6.59028 27.2186 6.34264L25.6573 4.78131C25.4097 4.53357 25.1156 4.33705 24.792 4.20297C24.4684 4.06889 24.1216 3.99988 23.7713 3.99988C23.421 3.99988 23.0742 4.06889 22.7506 4.20297C22.427 4.33705 22.1329 4.53357 21.8853 4.78131L7.77064 18.896C7.42038 19.2461 7.14253 19.6619 6.95297 20.1194C6.7634 20.577 6.66583 21.0674 6.66583 21.5626C6.66583 22.0579 6.7634 22.5483 6.95297 23.0059C7.14253 23.4634 7.42038 23.8792 7.77064 24.2293Z" stroke="black" stroke-width="2" stroke-linecap="round" stroke-linejoin="round"/>
<path d="M5.33331 26.6667L7.69065 24.3093" stroke="black" stroke-width="2" stroke-linecap="round" stroke-linejoin="round"/>
</svg>
