<svg width="32" height="32" viewBox="0 0 32 32" fill="none" xmlns="http://www.w3.org/2000/svg">
<path d="M5.33333 10.6667C5.33333 9.25219 5.89523 7.89563 6.89543 6.89544C7.89562 5.89525 9.25217 5.33334 10.6667 5.33334H21.3333C22.7478 5.33334 24.1044 5.89525 25.1046 6.89544C26.1048 7.89563 26.6667 9.25219 26.6667 10.6667V21.3333C26.6667 22.7478 26.1048 24.1044 25.1046 25.1046C24.1044 26.1048 22.7478 26.6667 21.3333 26.6667H10.6667C9.25217 26.6667 7.89562 26.1048 6.89543 25.1046C5.89523 24.1044 5.33333 22.7478 5.33333 21.3333V10.6667Z" stroke="black" stroke-width="2" stroke-linecap="round" stroke-linejoin="round"/>
<path d="M12 16C12 17.0609 12.4214 18.0783 13.1716 18.8284C13.9217 19.5786 14.9391 20 16 20C17.0609 20 18.0783 19.5786 18.8284 18.8284C19.5786 18.0783 20 17.0609 20 16C20 14.9391 19.5786 13.9217 18.8284 13.1716C18.0783 12.4214 17.0609 12 16 12C14.9391 12 13.9217 12.4214 13.1716 13.1716C12.4214 13.9217 12 14.9391 12 16Z" stroke="black" stroke-width="2" stroke-linecap="round" stroke-linejoin="round"/>
<path d="M22 10V10.0133" stroke="black" stroke-width="2" stroke-linecap="round" stroke-linejoin="round"/>
</svg>
