<svg width="48" height="48" viewBox="0 0 48 48" fill="none" xmlns="http://www.w3.org/2000/svg">
<rect width="48" height="48" rx="24" fill="#EE0000"/>
<path d="M23 26H25C25.5304 26 26.0391 25.7893 26.4142 25.4142C26.7893 25.0391 27 24.5304 27 24C27 23.4696 26.7893 22.9609 26.4142 22.5858C26.0391 22.2107 25.5304 22 25 22H22C21.4 22 20.9 22.2 20.6 22.6L15 28" stroke="white" stroke-width="2" stroke-linecap="round" stroke-linejoin="round"/>
<path d="M26.45 25.39L31.5 20.696C32.196 20 33 18.85 33 17.75C33.0001 17.1934 32.8313 16.6498 32.5159 16.1911C32.2005 15.7325 31.7533 15.3803 31.2335 15.1813C30.7136 14.9822 30.1456 14.9456 29.6045 15.0762C29.0634 15.2069 28.5747 15.4987 28.203 15.913C28.1772 15.9411 28.1458 15.9635 28.1108 15.9788C28.0759 15.9941 28.0382 16.002 28 16.002C27.9618 16.002 27.9241 15.9941 27.8892 15.9788C27.8542 15.9635 27.8228 15.9411 27.797 15.913C27.4253 15.4987 26.9366 15.2069 26.3955 15.0762C25.8544 14.9456 25.2864 14.9822 24.7665 15.1813C24.2467 15.3803 23.7995 15.7325 23.4841 16.1911C23.1687 16.6498 22.9999 17.1934 23 17.75C23 18.95 23.802 19.998 24.5 20.696L28 23.95" stroke="white" stroke-width="2" stroke-linecap="round" stroke-linejoin="round"/>
<path d="M14 27L20 33" stroke="white" stroke-width="2" stroke-linecap="round" stroke-linejoin="round"/>
<path d="M19 32L20.6 30.6C20.9 30.2 21.4 30 22 30H26C27.1 30 28.1 29.6 28.8 28.8L33.4 24.4C33.7859 24.0354 34.0111 23.5323 34.0261 23.0016C34.0411 22.4709 33.8447 21.9559 33.48 21.57C33.1153 21.1841 32.6123 20.9589 32.0816 20.9439C31.5508 20.9289 31.0359 21.1254 30.65 21.49" stroke="white" stroke-width="2" stroke-linecap="round" stroke-linejoin="round"/>
</svg>
