<svg width="32" height="32" viewBox="0 0 32 32" fill="none" xmlns="http://www.w3.org/2000/svg">
<path d="M13.3333 2.66669V13.3334L17.3333 9.33335L21.3333 13.3334V2.66669" stroke="black" stroke-width="2" stroke-linecap="round" stroke-linejoin="round"/>
<path d="M5.33333 26V6.00002C5.33333 5.11597 5.68452 4.26812 6.30964 3.643C6.93476 3.01788 7.78261 2.66669 8.66666 2.66669H25.3333C25.687 2.66669 26.0261 2.80716 26.2761 3.05721C26.5262 3.30726 26.6667 3.6464 26.6667 4.00002V28C26.6667 28.3536 26.5262 28.6928 26.2761 28.9428C26.0261 29.1929 25.687 29.3334 25.3333 29.3334H8.66666C7.78261 29.3334 6.93476 28.9822 6.30964 28.357C5.68452 27.7319 5.33333 26.8841 5.33333 26ZM5.33333 26C5.33333 25.116 5.68452 24.2681 6.30964 23.643C6.93476 23.0179 7.78261 22.6667 8.66666 22.6667H26.6667" stroke="black" stroke-width="2" stroke-linecap="round" stroke-linejoin="round"/>
</svg>
