<svg width="32" height="32" viewBox="0 0 32 32" fill="none" xmlns="http://www.w3.org/2000/svg">
<path d="M20 17.2001C21.4041 17.4858 22.8629 17.3115 24.1602 16.7031C25.4575 16.0947 26.5242 15.0844 27.2023 13.8221C27.8804 12.5598 28.1337 11.1127 27.9248 9.69508C27.7158 8.27751 27.0557 6.96498 26.0422 5.95203C25.0288 4.93908 23.7159 4.27962 22.2982 4.07139C20.8805 3.86316 19.4335 4.11724 18.1715 4.79597C16.9096 5.4747 15.8999 6.54196 15.2921 7.83957C14.6844 9.13718 14.5108 10.5961 14.7973 12.0001" stroke="black" stroke-width="2" stroke-linecap="round" stroke-linejoin="round"/>
<path d="M20 17.2L14.7973 12.0013L4.77999 23.4467C4.27962 23.9465 3.9983 24.6247 3.99793 25.3319C3.99774 25.6821 4.06653 26.0289 4.20038 26.3525C4.33422 26.6762 4.5305 26.9702 4.77799 27.218C5.02549 27.4658 5.31937 27.6624 5.64284 27.7965C5.96631 27.9307 6.31305 27.9999 6.66325 28.0001C7.37051 28.0005 8.04895 27.7199 8.54933 27.22L20 17.2Z" stroke="black" stroke-width="2" stroke-linecap="round" stroke-linejoin="round"/>
</svg>
