<svg width="32" height="32" viewBox="0 0 32 32" fill="none" xmlns="http://www.w3.org/2000/svg">
<path d="M18.6667 4V9.33333C18.6667 9.68695 18.8072 10.0261 19.0572 10.2761C19.3073 10.5262 19.6464 10.6667 20 10.6667H25.3334" stroke="black" stroke-width="2" stroke-linecap="round" stroke-linejoin="round"/>
<path d="M6.66669 10.6667V6.66667C6.66669 5.95942 6.94764 5.28115 7.44774 4.78105C7.94783 4.28095 8.62611 4 9.33335 4H18.6667L25.3334 10.6667V25.3333C25.3334 26.0406 25.0524 26.7189 24.5523 27.219C24.0522 27.719 23.3739 28 22.6667 28H16" stroke="black" stroke-width="2" stroke-linecap="round" stroke-linejoin="round"/>
<path d="M4 18.6666C4 19.7275 4.42143 20.7449 5.17157 21.4951C5.92172 22.2452 6.93913 22.6666 8 22.6666C9.06087 22.6666 10.0783 22.2452 10.8284 21.4951C11.5786 20.7449 12 19.7275 12 18.6666C12 17.6058 11.5786 16.5883 10.8284 15.8382C10.0783 15.0881 9.06087 14.6666 8 14.6666C6.93913 14.6666 5.92172 15.0881 5.17157 15.8382C4.42143 16.5883 4 17.6058 4 18.6666Z" stroke="black" stroke-width="2" stroke-linecap="round" stroke-linejoin="round"/>
<path d="M6 22.6666L4 29.3333L8 27.3333L12 29.3333L10 22.6666" stroke="black" stroke-width="2" stroke-linecap="round" stroke-linejoin="round"/>
</svg>
