<svg width="48" height="48" viewBox="0 0 48 48" fill="none" xmlns="http://www.w3.org/2000/svg">
<rect width="48" height="48" rx="24" fill="#EE0000"/>
<path d="M23 29L25 31C25.197 31.197 25.4308 31.3532 25.6882 31.4598C25.9456 31.5665 26.2214 31.6213 26.5 31.6213C26.7786 31.6213 27.0544 31.5665 27.3118 31.4598C27.5692 31.3532 27.803 31.197 28 31C28.197 30.803 28.3532 30.5692 28.4598 30.3118C28.5665 30.0544 28.6213 29.7786 28.6213 29.5C28.6213 29.2214 28.5665 28.9456 28.4598 28.6882C28.3532 28.4308 28.197 28.197 28 28" stroke="white" stroke-width="2" stroke-linecap="round" stroke-linejoin="round"/>
<path d="M26 26L28.5 28.5C28.8978 28.8978 29.4374 29.1213 30 29.1213C30.5626 29.1213 31.1022 28.8978 31.5 28.5C31.8978 28.1022 32.1213 27.5626 32.1213 27C32.1213 26.4374 31.8978 25.8978 31.5 25.5L27.62 21.62C27.0575 21.0582 26.295 20.7427 25.5 20.7427C24.705 20.7427 23.9425 21.0582 23.38 21.62L22.5 22.5C22.1022 22.8978 21.5626 23.1213 21 23.1213C20.4374 23.1213 19.8978 22.8978 19.5 22.5C19.1022 22.1022 18.8787 21.5626 18.8787 21C18.8787 20.4374 19.1022 19.8978 19.5 19.5L22.31 16.69C23.2222 15.7802 24.4119 15.2006 25.6906 15.043C26.9694 14.8854 28.2641 15.1588 29.37 15.82L29.84 16.1C30.2658 16.357 30.772 16.4461 31.26 16.35L33 16" stroke="white" stroke-width="2" stroke-linecap="round" stroke-linejoin="round"/>
<path d="M33 15L34 26H32" stroke="white" stroke-width="2" stroke-linecap="round" stroke-linejoin="round"/>
<path d="M15 15L14 26L20.5 32.5C20.8978 32.8978 21.4374 33.1213 22 33.1213C22.5626 33.1213 23.1022 32.8978 23.5 32.5C23.8978 32.1022 24.1213 31.5626 24.1213 31C24.1213 30.4374 23.8978 29.8978 23.5 29.5" stroke="white" stroke-width="2" stroke-linecap="round" stroke-linejoin="round"/>
<path d="M15 16H23" stroke="white" stroke-width="2" stroke-linecap="round" stroke-linejoin="round"/>
</svg>
