<svg width="32" height="32" viewBox="0 0 32 32" fill="none" xmlns="http://www.w3.org/2000/svg">
<path d="M20 17.2C21.4041 17.4857 22.8629 17.3115 24.1602 16.703C25.4575 16.0946 26.5243 15.0844 27.2024 13.8221C27.8804 12.5598 28.1338 11.1126 27.9248 9.69502C27.7159 8.27745 27.0557 6.96492 26.0423 5.95197C25.0288 4.93902 23.7159 4.27956 22.2982 4.07133C20.8806 3.8631 19.4335 4.11717 18.1716 4.79591C16.9096 5.47464 15.8999 6.5419 15.2922 7.83951C14.6844 9.13712 14.5109 10.596 14.7973 12" stroke="black" stroke-width="2" stroke-linecap="round" stroke-linejoin="round"/>
<path d="M20 17.2L14.7973 12.0013L4.77999 23.4467C4.27962 23.9465 3.9983 24.6247 3.99793 25.3319C3.99774 25.6821 4.06653 26.0289 4.20038 26.3525C4.33422 26.6761 4.5305 26.9702 4.77799 27.218C5.02549 27.4658 5.31937 27.6623 5.64284 27.7965C5.96631 27.9307 6.31305 27.9999 6.66325 28.0001C7.37051 28.0004 8.04895 27.7198 8.54933 27.22L20 17.2Z" stroke="black" stroke-width="2" stroke-linecap="round" stroke-linejoin="round"/>
</svg>
